<svg width="480" height="410" viewBox="0 0 480 410" fill="none" xmlns="http://www.w3.org/2000/svg">
<path d="M300.727 0L383.042 285.361L412.676 166.826C376.091 166.826 346.092 177.436 322.678 198.655C299.263 219.874 287.556 249.142 287.556 286.459C287.556 323.775 299.629 353.775 323.775 376.457C347.189 398.408 376.823 409.383 412.676 409.383C448.529 409.383 478.529 398.408 502.675 376.457C526.089 353.775 537.796 323.775 537.796 286.459C537.796 276.215 537.064 265.971 535.601 255.727C533.406 245.484 529.747 233.045 524.625 218.411C519.504 203.777 511.821 184.753 501.577 161.339L431.334 0H300.727ZM13.1706 0L95.4863 285.361L125.12 166.826C88.5352 166.826 58.5357 177.436 35.1214 198.655C11.7072 219.874 6.10352e-05 249.142 6.10352e-05 286.459C6.10352e-05 323.775 12.073 353.775 36.2189 376.457C59.6332 398.408 89.2668 409.383 125.12 409.383C160.973 409.383 190.972 398.408 215.118 376.457C238.533 353.775 250.24 323.775 250.24 286.459C250.24 276.215 249.508 265.971 248.045 255.727C245.85 245.484 242.191 233.045 237.069 218.411C231.947 203.777 224.265 184.753 214.021 161.339L143.778 0H13.1706Z" fill="#DC2B29"/>
</svg>
